<svg width="400" height="300" viewBox="0 0 400 300" fill="none" xmlns="http://www.w3.org/2000/svg">
  <rect width="400" height="300" fill="#E6F7EC"/>
  <path d="M200 75C183.43 75 170 88.43 170 105C170 121.57 183.43 135 200 135C216.57 135 230 121.57 230 105C230 88.43 216.57 75 200 75ZM200 125C188.95 125 180 116.05 180 105C180 93.95 188.95 85 200 85C211.05 85 220 93.95 220 105C220 116.05 211.05 125 200 125Z" fill="#22C55E"/>
  <path d="M200 145C175.5 145 130 157.25 130 180V195H270V180C270 157.25 224.5 145 200 145ZM145 180C147.75 174.5 173.25 155 200 155C226.75 155 252.25 174.5 255 180H145Z" fill="#22C55E"/>
  <path d="M130 75C113.43 75 100 88.43 100 105C100 121.57 113.43 135 130 135C146.57 135 160 121.57 160 105C160 88.43 146.57 75 130 75ZM130 125C118.95 125 110 116.05 110 105C110 93.95 118.95 85 130 85C141.05 85 150 93.95 150 105C150 116.05 141.05 125 130 125Z" fill="#22C55E"/>
  <path d="M130 145C105.5 145 60 157.25 60 180V195H200V180C200 157.25 154.5 145 130 145ZM75 180C77.75 174.5 103.25 155 130 155C156.75 155 182.25 174.5 185 180H75Z" fill="#22C55E"/>
  <path d="M270 75C253.43 75 240 88.43 240 105C240 121.57 253.43 135 270 135C286.57 135 300 121.57 300 105C300 88.43 286.57 75 270 75ZM270 125C258.95 125 250 116.05 250 105C250 93.95 258.95 85 270 85C281.05 85 290 93.95 290 105C290 116.05 281.05 125 270 125Z" fill="#22C55E"/>
  <path d="M270 145C245.5 145 200 157.25 200 180V195H340V180C340 157.25 294.5 145 270 145ZM215 180C217.75 174.5 243.25 155 270 155C296.75 155 322.25 174.5 325 180H215Z" fill="#22C55E"/>
</svg>
