<svg width="32" height="32" viewBox="0 0 32 32" fill="none" xmlns="http://www.w3.org/2000/svg">
  <circle cx="16" cy="16" r="16" fill="#E6F7EC"/>
  <path d="M16 8C13.8 8 12 9.8 12 12C12 14.2 13.8 16 16 16C18.2 16 20 14.2 20 12C20 9.8 18.2 8 16 8ZM16 14C14.9 14 14 13.1 14 12C14 10.9 14.9 10 16 10C17.1 10 18 10.9 18 12C18 13.1 17.1 14 16 14Z" fill="#22C55E"/>
  <path d="M16 17C13.33 17 8 18.34 8 21V23H24V21C24 18.34 18.67 17 16 17ZM10 21C10.22 20.28 13.31 19 16 19C18.7 19 21.8 20.29 22 21H10Z" fill="#22C55E"/>
</svg>
